<svg width="25" height="30" viewBox="0 0 25 30" fill="none" xmlns="http://www.w3.org/2000/svg">
<path id="Vector" d="M10.0036 0.000120132C9.83821 -0.0022248 9.67407 0.0297805 9.52066 0.0942776C9.36725 0.158775 9.22763 0.254478 9.10991 0.37583C8.9922 0.497182 8.89872 0.641764 8.83492 0.80118C8.77112 0.960595 8.73827 1.13167 8.73827 1.30446H1.266C1.1006 1.30202 0.936376 1.33395 0.782885 1.3984C0.629393 1.46286 0.489691 1.55854 0.371896 1.6799C0.254102 1.80127 0.160565 1.94588 0.096721 2.10535C0.0328773 2.26481 0 2.43595 0 2.60881C0 2.78166 0.0328773 2.9528 0.096721 3.11226C0.160565 3.27173 0.254102 3.41634 0.371896 3.53771C0.489691 3.65907 0.629393 3.75476 0.782885 3.81921C0.936376 3.88366 1.1006 3.91559 1.266 3.91315H23.734C23.8994 3.91559 24.0636 3.88366 24.2171 3.81921C24.3706 3.75476 24.5103 3.65907 24.6281 3.53771C24.7459 3.41634 24.8394 3.27173 24.9033 3.11226C24.9671 2.9528 25 2.78166 25 2.60881C25 2.43595 24.9671 2.26481 24.9033 2.10535C24.8394 1.94588 24.7459 1.80127 24.6281 1.6799C24.5103 1.55854 24.3706 1.46286 24.2171 1.3984C24.0636 1.33395 23.8994 1.30202 23.734 1.30446H16.2617C16.2617 1.13167 16.2289 0.960595 16.1651 0.80118C16.1013 0.641764 16.0078 0.497182 15.8901 0.37583C15.7724 0.254478 15.6327 0.158775 15.4793 0.0942776C15.3259 0.0297805 15.1618 -0.0022248 14.9964 0.000120132H10.0036ZM1.266 6.52183V27.3913C1.266 28.8326 2.38316 30 3.76244 30H21.2376C22.6168 30 23.734 28.8326 23.734 27.3913V6.52183H1.266Z" fill="#DA4F4F"/>
</svg>
